<svg xmlns="http://www.w3.org/2000/svg" width="1024" height="1024" viewBox="0 0 1024 1024">
  <defs>
    <filter id="softNoise" x="0" y="0" width="100%" height="100%">
      <feTurbulence type="fractalNoise" baseFrequency="0.035" numOctaves="2" seed="7"/>
      <feColorMatrix type="saturate" values="0.35"/>
      <feBlend mode="soft-light" in2="SourceGraphic"/>
    </filter>
    <pattern id="roofLinesRed" width="42" height="42" patternUnits="userSpaceOnUse" patternTransform="rotate(22)">
      <rect width="42" height="42" fill="#be4f36"/>
      <rect width="6" height="42" fill="#e07b54" opacity="0.85"/>
      <rect x="22" width="4" height="42" fill="#843929" opacity="0.45"/>
    </pattern>
    <pattern id="roofLinesBlue" width="46" height="46" patternUnits="userSpaceOnUse" patternTransform="rotate(20)">
      <rect width="46" height="46" fill="#557181"/>
      <rect x="2" width="5" height="46" fill="#86a3af" opacity="0.75"/>
      <rect x="27" width="4" height="46" fill="#314b58" opacity="0.45"/>
    </pattern>
    <pattern id="greenRoofLines" width="44" height="44" patternUnits="userSpaceOnUse" patternTransform="rotate(18)">
      <rect width="44" height="44" fill="#4b8c62"/>
      <rect x="4" width="5" height="44" fill="#84b584" opacity="0.7"/>
      <rect x="28" width="4" height="44" fill="#2e6448" opacity="0.35"/>
    </pattern>
  </defs>
  <g filter="url(#softNoise)">
    <rect x="0" y="0" width="256" height="256" fill="#78ae59"/>
    <path d="M30 54c32-17 74-13 105 9 38 28 65 12 98 0v193H0V77c10-5 20-11 30-23Z" fill="#91c66c" opacity=".48"/>
    <path d="M28 202c44-17 87 8 130-2 33-8 48-31 98-25v81H0v-35c9-7 18-13 28-19Z" fill="#5e994e" opacity=".35"/>
    <circle cx="42" cy="44" r="4" fill="#c7dfa0"/><circle cx="188" cy="91" r="3" fill="#d0e6a7"/><circle cx="101" cy="187" r="3" fill="#d6eeb5"/>
    <rect x="256" y="0" width="256" height="256" fill="#414a4f"/>
    <path d="M286 55c70 11 126-16 204 5" stroke="#657077" stroke-width="9" opacity=".42" fill="none"/>
    <path d="M274 188c64-21 119 4 213-20" stroke="#2f363a" stroke-width="12" opacity=".38" fill="none"/>
    <path d="M369 0v256" stroke="#d6d5c8" stroke-width="7" stroke-dasharray="28 28" opacity=".56"/>
    <circle cx="314" cy="98" r="4" fill="#747f83"/><circle cx="456" cy="143" r="3" fill="#758086"/>
    <rect x="512" y="0" width="256" height="256" fill="#d7d1c2"/>
    <path d="M512 86h256M512 174h256M598 0v256M684 0v256" stroke="#b7b0a4" stroke-width="5" opacity=".58"/>
    <path d="M541 47c46-18 84 16 139-2 22-7 38-16 74-7" stroke="#ece8db" stroke-width="8" opacity=".45" fill="none"/>
    <rect x="768" y="0" width="256" height="256" fill="url(#roofLinesRed)"/>
    <path d="M788 88c47-24 91-21 137 3 30 16 54 15 90-4" stroke="#f0a278" stroke-width="10" opacity=".32" fill="none"/>
    <path d="M772 206c73-19 138 13 249-14" stroke="#7c2f25" stroke-width="9" opacity=".28" fill="none"/>
    <rect x="0" y="256" width="256" height="256" fill="url(#roofLinesBlue)"/>
    <path d="M19 334c45-19 91-13 134 6 37 16 63 10 97-11" stroke="#bed0d5" stroke-width="10" opacity=".28" fill="none"/>
    <path d="M15 451c56-24 119 4 231-13" stroke="#263e4a" stroke-width="8" opacity=".28" fill="none"/>
    <rect x="256" y="256" width="256" height="256" fill="#e5d6b2"/>
    <path d="M287 298h190M279 383h212M290 471h178" stroke="#f7efd8" stroke-width="10" opacity=".34"/>
    <circle cx="310" cy="336" r="5" fill="#bfae8d" opacity=".52"/><circle cx="444" cy="421" r="4" fill="#bfae8d" opacity=".48"/><circle cx="373" cy="475" r="3" fill="#bfae8d" opacity=".52"/>
    <rect x="512" y="256" width="256" height="256" fill="#d9c58d"/>
    <path d="M532 324c44-14 78 7 125-7 37-11 66-26 103-7" stroke="#f2e2ae" stroke-width="13" opacity=".28" fill="none"/>
    <path d="M532 456h206" stroke="#b89d63" stroke-width="9" opacity=".38"/>
    <circle cx="585" cy="389" r="5" fill="#ae9259"/><circle cx="694" cy="338" r="4" fill="#efdca6"/>
    <rect x="768" y="256" width="256" height="256" fill="url(#greenRoofLines)"/>
    <path d="M794 332c57-19 101 11 154-5 22-7 42-18 66-8" stroke="#b8d293" stroke-width="10" opacity=".31" fill="none"/>
    <path d="M792 465c76-28 139 14 224-11" stroke="#285c43" stroke-width="8" opacity=".25" fill="none"/>
    <rect x="0" y="512" width="256" height="256" fill="#a9794c"/>
    <path d="M12 565c39-32 93-28 140-9 37 15 64 3 94-19v231H0V582c4-5 8-10 12-17Z" fill="#c0905b" opacity=".43"/>
    <path d="M23 700c55-31 98 3 144-7 30-7 47-25 89-19v94H0v-46c7-7 15-14 23-22Z" fill="#7d593b" opacity=".28"/>
    <circle cx="63" cy="629" r="5" fill="#d8ae75"/><circle cx="178" cy="579" r="4" fill="#734f35"/><circle cx="121" cy="719" r="3" fill="#e7bd86"/>
    <rect x="256" y="512" width="256" height="256" fill="#bd7a45"/>
    <path d="M279 570c47-19 80 16 126-1 33-12 58-20 98-3" stroke="#e5a663" stroke-width="16" opacity=".36" fill="none"/>
    <path d="M269 703c62-25 128 12 227-16" stroke="#8f5130" stroke-width="13" opacity=".3" fill="none"/>
    <path d="M352 548v190M429 531v223" stroke="#d99a5b" stroke-width="3" opacity=".32"/>
    <rect x="512" y="512" width="256" height="256" fill="#4f8a45"/>
    <circle cx="548" cy="552" r="42" fill="#6eb657"/><circle cx="619" cy="574" r="55" fill="#3f7f3e"/><circle cx="706" cy="561" r="47" fill="#75bb62"/>
    <circle cx="561" cy="662" r="58" fill="#5da552"/><circle cx="659" cy="682" r="62" fill="#438c44"/><circle cx="730" cy="694" r="38" fill="#86c36b"/>
    <path d="M535 617c51-22 95-18 137 9 28 18 49 13 78-6" stroke="#c3dd88" stroke-width="9" opacity=".34" fill="none"/>
    <rect x="768" y="512" width="256" height="256" fill="#86663c"/>
    <path d="M792 558c43 24 71 14 108-10 33-22 76-18 112 5" stroke="#b38b52" stroke-width="29" opacity=".9" fill="none"/>
    <path d="M783 687c58-37 112-18 161-24 25-3 43-12 72-31" stroke="#c59a5b" stroke-width="22" opacity=".72" fill="none"/>
    <path d="M811 606c72 19 116-19 185 8" stroke="#5f462d" stroke-width="6" opacity=".32" fill="none"/>
    <rect x="0" y="768" width="256" height="256" fill="#4b9cc4"/>
    <path d="M0 839c43-25 83-24 122 2 39 27 78 23 134-4v187H0Z" fill="#63bbd2" opacity=".55"/>
    <path d="M12 908c50-28 87 7 128-3 36-9 65-27 106-11" stroke="#d3f1ec" stroke-width="12" opacity=".5" fill="none"/>
    <path d="M36 804c55 23 95-4 163 13" stroke="#216d95" stroke-width="9" opacity=".31" fill="none"/>
    <rect x="256" y="768" width="256" height="256" fill="#a7a59b"/>
    <path d="M262 830h250M262 914h250M321 768v256M429 768v256" stroke="#77756f" stroke-width="11" opacity=".52"/>
    <path d="M294 797c54 31 113 28 180 0" stroke="#d9d7cc" stroke-width="12" opacity=".38" fill="none"/>
    <circle cx="371" cy="879" r="5" fill="#64625f"/><circle cx="467" cy="963" r="4" fill="#d4d0c2"/>
    <rect x="512" y="768" width="256" height="256" fill="#5f9f55"/>
    <circle cx="547" cy="810" r="30" fill="#7fbd65"/><circle cx="610" cy="842" r="38" fill="#3e8646"/><circle cx="703" cy="815" r="35" fill="#8bc574"/>
    <circle cx="559" cy="934" r="36" fill="#69ad5a"/><circle cx="652" cy="943" r="48" fill="#4d954a"/><circle cx="730" cy="931" r="26" fill="#9ace7a"/>
    <circle cx="625" cy="889" r="22" fill="#c9df8a" opacity=".32"/>
    <rect x="768" y="768" width="256" height="256" fill="#c7bea4"/>
    <circle cx="802" cy="803" r="7" fill="#eee5ca"/><circle cx="865" cy="832" r="5" fill="#9c917d"/><circle cx="951" cy="794" r="8" fill="#eee3c5"/>
    <circle cx="813" cy="935" r="6" fill="#a99d84"/><circle cx="894" cy="960" r="9" fill="#eee5ca"/><circle cx="994" cy="918" r="5" fill="#8d826f"/>
    <path d="M785 881c60-20 129 10 215-11" stroke="#ddd3b9" stroke-width="10" opacity=".42" fill="none"/>
  </g>
</svg>
